<svg xmlns="http://www.w3.org/2000/svg" viewBox="0 0 512 512">
  <defs>
    <linearGradient id="bg" x1="0" y1="0" x2="0" y2="1">
      <stop offset="0%" stop-color="#242425"/>
      <stop offset="100%" stop-color="#070707"/>
    </linearGradient>
  </defs>

  <rect width="512" height="512" rx="108" ry="108" fill="url(#bg)"/>

  <!-- Icon shifted up by 30px: centre moves from 308 → 278 -->
  <g fill="none" stroke="#ffffff" stroke-linecap="round" stroke-linejoin="round">

    <path d="M 112 278 A 144 144 0 0 1 400 278" stroke-width="18"/>

    <line x1="256" y1="138" x2="256" y2="162" transform="rotate(-75 256 278)" stroke-width="12"/>
    <line x1="256" y1="138" x2="256" y2="155" transform="rotate(-37.5 256 278)" stroke-width="8"/>
    <line x1="256" y1="138" x2="256" y2="162" transform="rotate(0 256 278)" stroke-width="12"/>
    <line x1="256" y1="138" x2="256" y2="155" transform="rotate(37.5 256 278)" stroke-width="8"/>
    <line x1="256" y1="138" x2="256" y2="162" transform="rotate(75 256 278)" stroke-width="12"/>

    <line x1="256" y1="278" x2="256" y2="152" stroke-width="10" transform="rotate(30 256 278)"/>

  </g>

  <circle cx="256" cy="278" r="14" fill="#ffffff"/>
  <rect x="174" y="328" width="164" height="16" rx="8" fill="#ffffff"/>

</svg>